<svg width="134" height="168" viewBox="0 0 134 168" fill="none" xmlns="http://www.w3.org/2000/svg">
<path d="M42 25.6667H25.3334C20.9131 25.6667 16.6738 27.4226 13.5482 30.5482C10.4226 33.6738 8.66669 37.9131 8.66669 42.3333V142.333C8.66669 146.754 10.4226 150.993 13.5482 154.118C16.6738 157.244 20.9131 159 25.3334 159H108.667C113.087 159 117.326 157.244 120.452 154.118C123.577 150.993 125.333 146.754 125.333 142.333V42.3333C125.333 37.9131 123.577 33.6738 120.452 30.5482C117.326 27.4226 113.087 25.6667 108.667 25.6667H92" stroke="black" stroke-width="16.6667" stroke-linecap="round" stroke-linejoin="round"/>
<path d="M42 100.667H42.0833M42 125.667H42.0833M67 117.333L75.3333 125.667L100.333 100.667M42 25.6667C42 21.2464 43.756 17.0072 46.8816 13.8816C50.0072 10.756 54.2464 9 58.6667 9H75.3333C79.7536 9 83.9928 10.756 87.1184 13.8816C90.244 17.0072 92 21.2464 92 25.6667C92 30.0869 90.244 34.3262 87.1184 37.4518C83.9928 40.5774 79.7536 42.3333 75.3333 42.3333H58.6667C54.2464 42.3333 50.0072 40.5774 46.8816 37.4518C43.756 34.3262 42 30.0869 42 25.6667Z" stroke="black" stroke-width="16.6667" stroke-linecap="round" stroke-linejoin="round"/>
</svg>
